<?xml version="1.0" standalone="no"?><!DOCTYPE svg PUBLIC "-//W3C//DTD SVG 1.1//EN" "http://www.w3.org/Graphics/SVG/1.1/DTD/svg11.dtd"><svg t="1776395765334" class="icon" viewBox="0 0 1024 1024" version="1.1" xmlns="http://www.w3.org/2000/svg" p-id="1767" xmlns:xlink="http://www.w3.org/1999/xlink" width="128" height="128"><path d="M463.36 149.211l-21.504 3.146-7.607 1.901a57.417 57.417 0 0 0-39.497 43.667l-8.923 45.348-0.659 0.366a316.312 316.312 0 0 0-52.15 28.599l-1.39 0.95-47.836-16.09a59.465 59.465 0 0 0-57.417 10.97l-6.729 6.803a362.277 362.277 0 0 0-61.806 95.378l-8.045 19.749-2.195 7.607a56.32 56.32 0 0 0 19.749 55.734l37.595 30.428-1.024 11.995a287.525 287.525 0 0 0-0.439 16.238l0.44 16.238 1.023 11.922-37.449 30.354a56.247 56.247 0 0 0-19.822 56.028l2.926 9.289c13.532 35.767 32.476 68.754 56.466 98.523l13.898 16.311 5.558 5.34c15.58 13.165 37.303 17.48 57.052 10.971l48.128-16.238 1.39 1.024c16.457 11.191 33.938 20.773 52.662 28.819l8.997 45.568c4.023 20.845 19.53 37.302 39.497 43.593l9.728 2.194a405.211 405.211 0 0 0 113.591 3.218l24.65-3.584 7.68-1.828a57.417 57.417 0 0 0 39.496-43.667l8.777-45.129 0.732-0.292a313.576 313.576 0 0 0 52.663-28.745l1.243-1.098 47.543 16.092c19.895 6.583 41.765 2.34 57.344-10.972l6.875-6.948c25.82-28.818 46.52-60.855 61.733-95.378l8.046-19.749 2.267-7.534a56.32 56.32 0 0 0-19.748-55.588l-37.01-29.989 1.096-12.507c0.293-5.413 0.44-10.825 0.44-16.238l-0.44-16.238-1.097-12.58 36.864-29.843a56.247 56.247 0 0 0 19.749-55.954l-2.853-9.362a358.107 358.107 0 0 0-56.466-98.45l-13.97-16.311-5.56-5.34a59.538 59.538 0 0 0-57.05-10.971l-47.69 16.018-1.463-1.024a312.832 312.832 0 0 0-34.377-20.26l-18.87-8.778-8.778-45.129a57.71 57.71 0 0 0-47.104-45.495l-2.12-0.365a407.918 407.918 0 0 0-116.737-2.78z m86.674 65.683l15.287 2.194 14.702 75.19 17.847 6.364a246.155 246.155 0 0 1 68.973 37.669l14.044 10.971 76.068-25.6 10.021 11.703c14.994 19.017 27.575 39.497 37.376 61.367l4.827 11.557-60.854 49.298 3.291 19.163a219.721 219.721 0 0 1 0 74.533l-3.291 19.236 60.708 49.152-4.754 11.703a293.157 293.157 0 0 1-37.376 61.22l-9.948 11.63-76.068-25.6-14.117 11.045c-20.626 16.092-43.74 28.745-68.9 37.669l-17.847 6.363-14.702 75.191 3.292-0.439a337.335 337.335 0 0 1-56.54 4.754l-19.017-0.512a339.017 339.017 0 0 1-19.017-1.609l-15.36-2.267-14.629-75.41-17.92-6.364a244.81 244.81 0 0 1-68.315-37.522l-14.117-10.972-76.58 25.747-9.948-11.776a292.498 292.498 0 0 1-37.376-61.294l-4.9-11.703 61.586-49.664-3.365-19.236a212.992 212.992 0 0 1 0-73.363l3.365-19.236-61.586-49.737 4.9-11.703c9.801-21.65 22.382-42.204 37.45-61.22l9.874-11.85 76.58 25.82 14.117-10.972c20.553-15.945 43.593-28.526 68.388-37.522l17.774-6.29 14.775-75.484-3.291 0.512a340.7 340.7 0 0 1 94.573-2.633z" p-id="1768"></path><path d="M512 365.714a146.286 146.286 0 1 1 0 292.572 146.286 146.286 0 0 1 0-292.572z m0 48.787a97.5 97.5 0 1 0 0 194.998 97.5 97.5 0 0 0 0-194.998z" p-id="1769"></path></svg>